<svg width="1103" height="1103" viewBox="0 0 1103 1103" fill="none" xmlns="http://www.w3.org/2000/svg">
    <rect width="1103" height="1103" rx="100" fill="#052B28"/>
    <path d="M882 880H742V744.754C738.316 749.814 734.474 754.851 730.472 759.863C675.094 829.224 600.382 867.377 511.896 877.634C453.785 884.37 397.593 877.112 345.039 850.881C259.388 808.13 211.133 717.369 221.355 624.504C232.389 524.262 300.158 448.324 394.537 425.194C430.519 416.376 466.389 416.849 502.427 424.922C511.698 426.999 514.305 430.58 511.358 440.122C500.287 475.973 489.522 511.934 479.62 548.121C476.349 560.076 468.913 556.754 461.648 555.623C411.621 547.837 363.195 584.237 357.081 634.36C350.553 687.882 384.451 731.095 440.627 740.865C550.099 759.905 652.57 688.452 668.351 578.514C684.957 462.825 602.968 375.318 508.47 360.233C468.136 353.795 429.625 359.198 392.829 376.944C388.219 379.168 383.482 382.972 379.448 375.583C359.331 338.733 339.046 301.972 318.884 265.295C422.674 194.722 628.036 200.896 742 355.565V222H882V880Z" fill="#9FE29E"/>
    </svg>
    