<svg width="1101" height="1101" viewBox="0 0 1101 1101" fill="none" xmlns="http://www.w3.org/2000/svg">
        <circle cx="550.5" cy="550.5" r="542.5" fill="#E17043" stroke="#EDE6D4" stroke-width="16"/>
        <rect width="235.551" height="919.641" rx="117.776" transform="matrix(-0.909653 0.415369 0.415369 0.909653 578.394 16.4424)" fill="#EDE6D4"/>
        <path d="M908.31 832.583C905.997 838.914 903.215 845.072 899.982 851H755.683L693.12 702.431H632.686L571.094 567.545H637.4L546.489 349.577L510.722 435.331L426.535 250.965L465.353 158H626.647L908.31 832.583Z" fill="#E17043"/>
        <path d="M604 134L604.302 134.006C607.408 134.122 610.178 136.033 611.383 138.918L907.383 847.918C908.414 850.387 908.142 853.209 906.658 855.436C905.175 857.662 902.676 859 900 859H736C732.781 859 729.876 857.071 728.627 854.104L666.688 707H376.345L315.391 854.063C314.152 857.052 311.235 859 308 859H143C140.324 859 137.825 857.662 136.342 855.436C134.858 853.209 134.586 850.387 135.617 847.918L431.617 138.918C432.861 135.94 435.772 134 439 134H604ZM441.004 553H602.996L522 358.784L441.004 553Z" fill="#EDE6D4" stroke="#E17043" stroke-width="16" stroke-linejoin="round"/>
        <path d="M899.379 655C927.912 655 952.488 664.854 972.641 684.479C992.84 704.151 1003 728.492 1003 757C1003 785.508 992.84 809.849 972.641 829.521C952.488 849.146 927.912 859 899.379 859C870.843 859 846.438 849.142 826.675 829.458C806.91 809.773 797 785.45 797 757C797 728.55 806.91 704.227 826.675 684.542C846.438 664.858 870.843 655 899.379 655Z" fill="#EDE6D4" stroke="#E17043" stroke-width="16"/>    
</svg>
        