<svg width="3552" height="3552" viewBox="0 0 3552 3552" fill="none" xmlns="http://www.w3.org/2000/svg">
<mask id="mask0_11_16" style="mask-type:alpha" maskUnits="userSpaceOnUse" x="0" y="0" width="3552" height="3552">
<rect width="3551.78" height="3551.78" rx="100" fill="#052B28"/>
</mask>
<g mask="url(#mask0_11_16)">
<line x1="3511.06" y1="37.065" x2="1.05624" y2="3518.42" stroke="white" stroke-opacity="0.4" stroke-width="3"/>
<line y1="-1.5" x2="4995.3" y2="-1.5" transform="matrix(-0.710468 -0.70373 0.710468 -0.70373 3551 3517.35)" stroke="white" stroke-opacity="0.4" stroke-width="3"/>
</g>
<mask id="path-4-inside-1_11_16" fill="white">
<path d="M2840.13 2833.69H2389.32V2398.19C2377.46 2414.48 2365.09 2430.7 2352.2 2446.84C2173.88 2670.19 1933.3 2793.04 1648.36 2826.07C1461.24 2847.76 1280.29 2824.39 1111.06 2739.93C835.255 2602.27 679.869 2310 712.785 2010.97C748.316 1688.18 966.542 1443.65 1270.45 1369.17C1386.32 1340.78 1501.82 1342.3 1617.87 1368.29C1647.72 1374.98 1656.12 1386.51 1646.63 1417.24C1610.98 1532.68 1576.31 1648.48 1544.43 1765.01C1533.9 1803.5 1509.95 1792.81 1486.55 1789.17C1325.46 1764.09 1169.53 1881.31 1149.84 2042.71C1128.82 2215.05 1237.97 2354.21 1418.87 2385.67C1771.38 2446.98 2101.34 2216.89 2152.16 1862.88C2205.64 1490.35 1941.62 1208.56 1637.33 1159.99C1507.45 1139.26 1383.44 1156.66 1264.95 1213.8C1250.11 1220.96 1234.85 1233.21 1221.86 1209.42C1157.08 1090.76 1091.77 972.384 1026.84 854.279C1361.06 627.027 2022.34 646.906 2389.32 1144.95V714.864H2840.13V2833.69Z"/>
</mask>
<path d="M2840.13 2833.69V2838.69H2845.13V2833.69H2840.13ZM2389.32 2833.69H2384.32V2838.69H2389.32V2833.69ZM2389.32 2398.19H2394.32V2382.83L2385.28 2395.25L2389.32 2398.19ZM2352.2 2446.84L2356.11 2449.96L2356.11 2449.96L2352.2 2446.84ZM1648.36 2826.07L1648.93 2831.04L1648.93 2831.04L1648.36 2826.07ZM1111.06 2739.93L1108.83 2744.4L1108.83 2744.4L1111.06 2739.93ZM712.785 2010.97L707.815 2010.42L707.815 2010.42L712.785 2010.97ZM1270.45 1369.17L1269.26 1364.32L1269.26 1364.32L1270.45 1369.17ZM1617.87 1368.29L1616.77 1373.17L1616.77 1373.17L1617.87 1368.29ZM1646.63 1417.24L1651.41 1418.72L1651.41 1418.72L1646.63 1417.24ZM1544.43 1765.01L1549.25 1766.33L1549.25 1766.33L1544.43 1765.01ZM1486.55 1789.17L1487.32 1784.23L1487.32 1784.23L1486.55 1789.17ZM1149.84 2042.71L1144.88 2042.1L1144.88 2042.1L1149.84 2042.71ZM1418.87 2385.67L1419.72 2380.74L1419.72 2380.74L1418.87 2385.67ZM2152.16 1862.88L2157.11 1863.59L2152.16 1862.88ZM1637.33 1159.99L1638.12 1155.05L1638.12 1155.05L1637.33 1159.99ZM1264.95 1213.8L1262.78 1209.3L1262.78 1209.3L1264.95 1213.8ZM1221.86 1209.42L1217.48 1211.81L1217.48 1211.81L1221.86 1209.42ZM1026.84 854.279L1024.03 850.144L1020.27 852.702L1022.46 856.687L1026.84 854.279ZM2389.32 1144.95L2385.29 1147.92L2394.32 1160.17V1144.95H2389.32ZM2389.32 714.864V709.864H2384.32V714.864H2389.32ZM2840.13 714.864H2845.13V709.864H2840.13V714.864ZM2840.13 2833.69V2828.69H2389.32V2833.69V2838.69H2840.13V2833.69ZM2389.32 2833.69H2394.32V2398.19H2389.32H2384.32V2833.69H2389.32ZM2389.32 2398.19L2385.28 2395.25C2373.46 2411.48 2361.13 2427.64 2348.29 2443.72L2352.2 2446.84L2356.11 2449.96C2369.04 2433.76 2381.46 2417.49 2393.36 2401.13L2389.32 2398.19ZM2352.2 2446.84L2348.29 2443.72C2170.87 2665.94 1931.54 2788.22 1647.78 2821.11L1648.36 2826.07L1648.93 2831.04C1935.05 2797.87 2176.88 2674.44 2356.11 2449.96L2352.2 2446.84ZM1648.36 2826.07L1647.78 2821.11C1461.46 2842.7 1281.52 2819.42 1113.29 2735.45L1111.06 2739.93L1108.83 2744.4C1279.06 2829.37 1461.01 2852.82 1648.93 2831.04L1648.36 2826.07ZM1111.06 2739.93L1113.29 2735.45C839.378 2598.73 685.066 2308.49 717.755 2011.52L712.785 2010.97L707.815 2010.42C674.672 2311.52 831.131 2605.8 1108.83 2744.4L1111.06 2739.93ZM712.785 2010.97L717.755 2011.52C753.057 1690.81 969.779 1448.01 1271.64 1374.03L1270.45 1369.17L1269.26 1364.32C963.304 1439.3 743.575 1685.55 707.815 2010.42L712.785 2010.97ZM1270.45 1369.17L1271.64 1374.03C1386.69 1345.84 1501.4 1347.33 1616.77 1373.17L1617.87 1368.29L1618.96 1363.41C1502.24 1337.27 1385.95 1335.72 1269.26 1364.32L1270.45 1369.17ZM1617.87 1368.29L1616.77 1373.17C1631.56 1376.48 1639.25 1380.69 1642.74 1386.37C1646.18 1391.97 1646.52 1400.65 1641.85 1415.77L1646.63 1417.24L1651.41 1418.72C1656.23 1403.11 1657.11 1390.66 1651.26 1381.13C1645.46 1371.69 1634.03 1366.79 1618.96 1363.41L1617.87 1368.29ZM1646.63 1417.24L1641.85 1415.77C1606.19 1531.23 1571.51 1647.09 1539.61 1763.69L1544.43 1765.01L1549.25 1766.33C1581.12 1649.88 1615.76 1534.14 1651.41 1418.72L1646.63 1417.24ZM1544.43 1765.01L1539.61 1763.69C1537.1 1772.84 1533.94 1778.55 1530.59 1782.11C1527.33 1785.58 1523.66 1787.27 1519.5 1787.96C1515.2 1788.66 1510.32 1788.29 1504.78 1787.4C1502.02 1786.96 1499.21 1786.41 1496.28 1785.84C1493.37 1785.28 1490.35 1784.7 1487.32 1784.23L1486.55 1789.17L1485.78 1794.11C1488.6 1794.55 1491.45 1795.09 1494.37 1795.66C1497.27 1796.22 1500.25 1796.81 1503.19 1797.28C1509.05 1798.22 1515.21 1798.8 1521.13 1797.82C1527.2 1796.82 1532.95 1794.2 1537.88 1788.96C1542.71 1783.81 1546.49 1776.43 1549.25 1766.33L1544.43 1765.01ZM1486.55 1789.17L1487.32 1784.23C1323.46 1758.72 1164.91 1877.87 1144.88 2042.1L1149.84 2042.71L1154.8 2043.31C1174.14 1884.74 1327.46 1769.47 1485.78 1794.11L1486.55 1789.17ZM1149.84 2042.71L1144.88 2042.1C1123.5 2217.33 1234.74 2358.72 1418.01 2390.59L1418.87 2385.67L1419.72 2380.74C1241.21 2349.69 1134.13 2212.78 1154.8 2043.31L1149.84 2042.71ZM1418.87 2385.67L1418.01 2390.59C1773.19 2452.37 2105.88 2220.5 2157.11 1863.59L2152.16 1862.88L2147.21 1862.17C2096.81 2213.28 1769.57 2441.59 1419.72 2380.74L1418.87 2385.67ZM2152.16 1862.88L2157.11 1863.59C2211.02 1488.04 1944.78 1204.01 1638.12 1155.05L1637.33 1159.99L1636.54 1164.93C1938.46 1213.12 2200.25 1492.65 2147.21 1862.17L2152.16 1862.88ZM1637.33 1159.99L1638.12 1155.05C1507.25 1134.16 1382.2 1151.7 1262.78 1209.3L1264.95 1213.8L1267.12 1218.31C1384.67 1161.61 1507.65 1144.35 1636.54 1164.93L1637.33 1159.99ZM1264.95 1213.8L1262.78 1209.3C1260.84 1210.24 1258.9 1211.25 1257.05 1212.21C1255.18 1213.19 1253.39 1214.13 1251.62 1214.98C1248.04 1216.69 1244.9 1217.88 1242.04 1218.26C1239.33 1218.63 1236.92 1218.27 1234.55 1216.86C1232.08 1215.38 1229.24 1212.49 1226.25 1207.02L1221.86 1209.42L1217.48 1211.81C1220.98 1218.24 1224.92 1222.75 1229.42 1225.44C1234.04 1228.2 1238.8 1228.79 1243.38 1228.17C1247.81 1227.58 1252.08 1225.84 1255.94 1223.99C1257.9 1223.06 1259.83 1222.04 1261.69 1221.08C1263.57 1220.09 1265.35 1219.16 1267.12 1218.31L1264.95 1213.8ZM1221.86 1209.42L1226.25 1207.02C1161.47 1088.35 1096.14 969.966 1031.22 851.87L1026.84 854.279L1022.46 856.687C1087.39 974.802 1152.7 1093.16 1217.48 1211.81L1221.86 1209.42ZM1026.84 854.279L1029.65 858.414C1361.78 632.584 2020 652.162 2385.29 1147.92L2389.32 1144.95L2393.34 1141.99C2024.68 641.65 1360.34 621.471 1024.03 850.144L1026.84 854.279ZM2389.32 1144.95H2394.32V714.864H2389.32H2384.32V1144.95H2389.32ZM2389.32 714.864V719.864H2840.13V714.864V709.864H2389.32V714.864ZM2840.13 714.864H2835.13V2833.69H2840.13H2845.13V714.864H2840.13Z" fill="white" mask="url(#path-4-inside-1_11_16)"/>
<circle cx="1694" cy="1767" r="1134.5" stroke="white" stroke-opacity="0.4" stroke-width="3"/>
<line x1="3552" y1="2873.5" x2="2" y2="2873.5" stroke="white" stroke-opacity="0.4" stroke-width="3"/>
<line x1="3552" y1="628.5" x2="2" y2="628.5" stroke="white" stroke-opacity="0.4" stroke-width="3"/>
<line x1="706.5" y1="3552" x2="706.5" y2="2" stroke="white" stroke-opacity="0.4" stroke-width="3"/>
<line x1="1.7242e-07" y1="1749.5" x2="3550" y2="1749.5" stroke="white" stroke-opacity="0.4" stroke-width="3"/>
<line x1="2842.5" y1="-6.55671e-08" x2="2842.5" y2="3552" stroke="white" stroke-opacity="0.4" stroke-width="3"/>
<line x1="1773.5" y1="3552" x2="1775.51" y2="-0.000702992" stroke="white" stroke-opacity="0.4" stroke-width="3"/>
</svg>
