<svg width="161" height="141" viewBox="0 0 161 141" fill="none" xmlns="http://www.w3.org/2000/svg">
<path d="M89.7829 23.9797V117.663C89.7829 126.333 79.503 130.895 73.0737 125.078L39.37 94.5841H9.99999C4.47714 94.5841 -7.62939e-06 90.1069 -7.62939e-06 84.5841V59.9327C-7.62939e-06 54.4099 4.47715 49.9327 10 49.9327H39.37L72.7457 16.8749C79.0591 10.6217 89.7829 15.0937 89.7829 23.9797Z" fill="#9FE29E"/>
<path d="M122.431 96.0245C139.326 91.5624 143.816 56.3407 122.431 44.1713" stroke="#9FE29E" stroke-width="7" stroke-linecap="round"/>
<path d="M110.909 83.5413C119.919 81.2276 122.314 62.9645 110.909 56.6545" stroke="#9FE29E" stroke-width="7" stroke-linecap="round"/>
<path d="M132.994 114.269C161.151 106.667 168.635 46.6597 132.994 25.9266" stroke="#9FE29E" stroke-width="7" stroke-linecap="round"/>
</svg>
